<?xml version="1.0" encoding="UTF-8" standalone="no"?>
<svg
   xmlns:dc="http://purl.org/dc/elements/1.1/"
   xmlns:cc="http://creativecommons.org/ns#"
   xmlns:rdf="http://www.w3.org/1999/02/22-rdf-syntax-ns#"
   xmlns:svg="http://www.w3.org/2000/svg"
   xmlns="http://www.w3.org/2000/svg"
   xmlns:sodipodi="http://sodipodi.sourceforge.net/DTD/sodipodi-0.dtd"
   xmlns:inkscape="http://www.inkscape.org/namespaces/inkscape"
   width="342.20688"
   height="342.52698"
   version="1.1"
   id="svg889"
   sodipodi:docname="gwokFaa.svg"
   style="fill:#ee1c25"
   inkscape:version="0.92.5 (2060ec1f9f, 2020-04-08)">
  <metadata
     id="metadata895">
    <rdf:RDF>
      <cc:Work
         rdf:about="">
        <dc:format>image/svg+xml</dc:format>
        <dc:type
           rdf:resource="http://purl.org/dc/dcmitype/StillImage" />
        <dc:title></dc:title>
      </cc:Work>
    </rdf:RDF>
  </metadata>
  <defs
     id="defs893" />
  <sodipodi:namedview
     pagecolor="#ffffff"
     bordercolor="#666666"
     borderopacity="1"
     objecttolerance="10"
     gridtolerance="10"
     guidetolerance="10"
     inkscape:pageopacity="0"
     inkscape:pageshadow="2"
     inkscape:window-width="1920"
     inkscape:window-height="1011"
     id="namedview891"
     showgrid="false"
     fit-margin-top="0"
     fit-margin-left="0"
     fit-margin-right="0"
     fit-margin-bottom="0"
     inkscape:zoom="0.4849574"
     inkscape:cx="374.02922"
     inkscape:cy="-71.167094"
     inkscape:window-x="0"
     inkscape:window-y="0"
     inkscape:window-maximized="1"
     inkscape:current-layer="svg889" />
  <path
     style="fill:#000000"
     d="M 195.34359,0.06994711 A 90.342104,90.342104 0 0 0 158.19711,174.20667 69.880683,69.880683 0 0 1 141.4432,78.413697 a 15.809868,15.809868 0 0 0 1.10743,1.04883 68.374981,68.374981 0 0 0 17.06835,93.914063 38.650583,38.650583 0 0 1 10.81641,-64.31445 A 45.171052,45.171052 0 0 0 190.72641,42.859007 27.917245,27.917245 0 0 1 205.6268,1.0660371 90.342104,90.342104 0 0 0 195.34359,0.06994711 Z m -48.82226,52.89843989 7.61914,8.59375 10.5293,-4.5918 -5.81836,9.9043 7.62109,8.59375 -11.2168,-2.47461 -5.81836,9.90429 -1.11328,-11.43164 -11.21875,-2.47461 10.5293,-4.59179 z M 9.710781,81.019167 A 90.342104,90.342104 0 0 0 159.72055,179.6305 69.880683,69.880683 0 0 1 63.439301,165.96448 15.809868,15.809868 0 0 0 64.777191,165.23206 68.374981,68.374981 0 0 0 159.36898,178.02112 38.650583,38.650583 0 0 1 101.54672,147.86096 45.171052,45.171052 0 0 0 44.851411,108.10511 27.917245,27.917245 0 0 1 9.710781,81.019167 Z m 242.953129,5.75195 a 90.342104,90.342104 0 0 0 -89.7793,84.310553 69.880683,69.880683 0 0 1 85.92773,-45.53516 15.809868,15.809868 0 0 0 -0.65429,1.37891 68.374981,68.374981 0 0 0 -84.04297,45.25195 38.650583,38.650583 0 0 1 64.50781,-9.58594 45.171052,45.171052 0 0 0 69.23438,-1.16211 27.917245,27.917245 0 0 1 44.3496,1.25782 90.342104,90.342104 0 0 0 -89.54296,-75.916023 z m 3.76953,31.738283 7.62109,8.59571 10.52734,-4.5918 -5.81835,9.90234 7.62109,8.5957 -11.21875,-2.4746 -5.81836,9.90429 -1.11328,-11.43164 -11.2168,-2.47461 10.5293,-4.59179 z m -206.210939,18.73633 7.62109,8.59375 10.52735,-4.5918 -5.81836,9.90235 7.62109,8.5957 -11.2168,-2.47266 -5.82031,9.9043 -1.11328,-11.43359 -11.2168,-2.47266 10.5293,-4.5918 z m 136.228519,34.62695 a 90.342104,90.342104 0 0 0 -1.30274,0.0527 90.342104,90.342104 0 0 0 -17.84375,2.64843 69.880683,69.880683 0 0 1 69.86133,67.6504 15.809868,15.809868 0 0 0 -1.51367,-0.19532 68.374981,68.374981 0 0 0 -69.00977,-65.94531 38.650583,38.650583 0 0 1 29.05274,58.38867 45.171052,45.171052 0 0 0 22.49804,65.48633 27.917245,27.917245 0 0 1 12.50977,42.56836 90.342104,90.342104 0 0 0 -44.25195,-170.6543 z m -22.74024,7.82227 a 38.650583,38.650583 0 0 1 -46.55469,45.67187 45.171052,45.171052 0 0 0 -55.328119,41.63477 27.917245,27.917245 0 0 1 -36.61914,25.05078 90.342104,90.342104 0 0 0 140.140619,-112.19336 69.880683,69.880683 0 0 1 -42.75,87.3457 15.809868,15.809868 0 0 0 -0.2832,-1.5 68.374981,68.374981 0 0 0 41.39453,-86.00976 z m 64.35156,63.60156 7.6211,8.59375 10.52929,-4.5918 -5.82031,9.9043 7.6211,8.59375 -11.2168,-2.47461 -5.81836,9.9043 -1.11328,-11.43164 -11.2168,-2.47461 10.52735,-4.5918 z m -127.44531,11.57813 7.6211,8.5957 10.52929,-4.5918 -5.81836,9.9043 7.61914,8.59375 -11.21679,-2.47266 -5.81836,9.90235 -1.11328,-11.43164 -11.218749,-2.47461 10.529289,-4.5918 z"
     id="path877"
     inkscape:connector-curvature="0" />
</svg>
