<?xml version="1.0" encoding="UTF-8" standalone="no"?>
<svg
   xmlns:dc="http://purl.org/dc/elements/1.1/"
   xmlns:cc="http://creativecommons.org/ns#"
   xmlns:rdf="http://www.w3.org/1999/02/22-rdf-syntax-ns#"
   xmlns:svg="http://www.w3.org/2000/svg"
   xmlns="http://www.w3.org/2000/svg"
   xmlns:sodipodi="http://sodipodi.sourceforge.net/DTD/sodipodi-0.dtd"
   xmlns:inkscape="http://www.inkscape.org/namespaces/inkscape"
   width="303.49"
   height="355"
   version="1.1"
   viewBox="0 0 445.12 520.67"
   id="svg977"
   sodipodi:docname="MacauGwokFaa.svg"
   inkscape:version="0.92.5 (2060ec1f9f, 2020-04-08)">
  <metadata
     id="metadata983">
    <rdf:RDF>
      <cc:Work
         rdf:about="">
        <dc:format>image/svg+xml</dc:format>
        <dc:type
           rdf:resource="http://purl.org/dc/dcmitype/StillImage" />
        <dc:title></dc:title>
      </cc:Work>
    </rdf:RDF>
  </metadata>
  <defs
     id="defs981" />
  <sodipodi:namedview
     pagecolor="#ffffff"
     bordercolor="#666666"
     borderopacity="1"
     objecttolerance="10"
     gridtolerance="10"
     guidetolerance="10"
     inkscape:pageopacity="0"
     inkscape:pageshadow="2"
     inkscape:window-width="1920"
     inkscape:window-height="1011"
     id="namedview979"
     showgrid="false"
     inkscape:zoom="1.6392926"
     inkscape:cx="255.3367"
     inkscape:cy="227.97441"
     inkscape:window-x="0"
     inkscape:window-y="0"
     inkscape:window-maximized="1"
     inkscape:current-layer="svg977" />
  <path
     style="fill:#000000;stroke-width:1.36362767"
     d="M 151.74414 -0.001953125 L 144.3418 22.78125 L 120.38086 22.78125 L 139.76562 36.859375 L 132.36719 59.630859 L 151.74609 45.558594 L 171.12305 59.630859 L 163.72266 36.859375 L 183.10938 22.78125 L 159.14844 22.78125 L 151.74414 -0.001953125 z M 57.191406 39.96875 L 62.039062 55.814453 L 48.462891 65.318359 L 65.035156 65.605469 L 69.886719 81.462891 L 75.285156 65.78125 L 91.853516 66.068359 L 78.619141 56.103516 L 84.013672 40.431641 L 70.431641 49.939453 L 57.191406 39.96875 z M 246.29883 39.96875 L 233.05664 49.939453 L 219.47656 40.431641 L 224.87109 56.101562 L 211.63477 66.068359 L 228.20508 65.78125 L 233.60352 81.462891 L 238.45508 65.605469 L 255.02539 65.318359 L 241.45117 55.814453 L 246.29883 39.96875 z M 151.74414 78.873047 C 151.74405 78.873673 151.74423 78.874374 151.74414 78.875 C 143.50053 86.265263 128.05913 102.23242 120.7793 126.70898 C 118.05477 135.87256 116.58984 145.57661 116.58984 155.62109 C 116.58984 176.47232 122.89383 195.85635 133.69922 211.97852 C 120.42976 194.83772 112.52734 173.33594 112.52734 149.99609 C 112.52734 134.49301 116.01509 119.80026 122.24414 106.65625 C 117.94326 102.10992 114.67507 96.575742 112.83008 90.425781 C 104.48331 105.15841 99.714844 122.17644 99.714844 140.30859 C 99.714844 162.86163 107.09095 183.69808 119.55859 200.54297 C 97.845551 177.77993 67.226104 163.58984 33.308594 163.58984 C 31.486787 163.58984 29.671856 163.63634 27.869141 163.7168 C 31.282301 166.89814 34.146654 170.65623 36.306641 174.83984 C 70.045516 174.89166 100.50343 188.98985 122.16602 211.58789 C 101.47842 194.308 74.851725 183.90234 45.810547 183.90234 C 29.580651 183.90234 14.105364 187.15051 0 193.0332 C 14.493998 231.33069 51.51787 258.58984 94.873047 258.58984 C 97.680756 258.58984 100.46382 258.46328 103.21289 258.23828 C 97.362928 259.28964 91.336871 259.83984 85.185547 259.83984 C 57.829813 259.83984 33.002561 248.98953 14.755859 231.36328 C 10.958156 232.82509 6.8844188 233.73796 2.6367188 233.99023 C 21.2216 255.01055 48.37856 268.27734 78.621094 268.27734 C 107.34677 268.27734 133.29082 256.31331 151.74609 237.09766 C 170.20131 256.31273 196.142 268.27734 224.86719 268.27734 C 255.10972 268.27734 282.26863 255.01055 300.85352 233.99023 C 296.60582 233.73796 292.53208 232.82509 288.73438 231.36328 C 270.48767 248.98953 245.65847 259.83984 218.30273 259.83984 C 212.15141 259.83984 206.12731 259.28964 200.27734 258.23828 C 203.02642 258.46328 205.80948 258.58984 208.61719 258.58984 C 251.97236 258.58984 288.99624 231.33069 303.49023 193.0332 C 289.38487 187.15051 273.90958 183.90234 257.67969 183.90234 C 228.63851 183.90234 202.01181 194.308 181.32422 211.58789 C 202.98681 188.98985 233.44472 174.89166 267.18359 174.83984 C 269.34358 170.65623 272.20793 166.89814 275.62109 163.7168 C 273.81838 163.63634 272.00345 163.58984 270.18164 163.58984 C 236.26413 163.58984 205.64468 177.77993 183.93164 200.54297 C 196.39929 183.69808 203.77539 162.86163 203.77539 140.30859 C 203.77539 122.17644 199.00692 105.15841 190.66016 90.425781 C 188.81517 96.575742 185.54698 102.10992 181.24609 106.65625 C 187.47514 119.80026 190.96289 134.49301 190.96289 149.99609 C 190.96289 173.33594 183.06048 194.83772 169.79102 211.97852 C 180.5964 195.85635 186.90039 176.47232 186.90039 155.62109 C 186.90039 145.57661 185.43547 135.87256 182.71094 126.70898 C 175.4311 102.23242 159.9897 86.265263 151.74609 78.875 C 151.74545 78.874421 151.74479 78.873626 151.74414 78.873047 z M 25.800781 92.332031 L 18.802734 107.34766 L 2.3457031 105.32617 L 14.474609 116.63672 L 7.4726562 131.6582 L 21.964844 123.62109 L 34.078125 134.91797 L 30.917969 118.65625 L 45.410156 110.61719 L 28.962891 108.5957 L 25.800781 92.332031 z M 277.68945 92.332031 L 274.52734 108.5957 L 258.08008 110.61719 L 272.57227 118.65625 L 269.41211 134.91797 L 281.52539 123.62109 L 296.01758 131.6582 L 289.01562 116.63672 L 301.14453 105.32617 L 284.6875 107.34766 L 277.68945 92.332031 z M 151.74414 248.0332 C 144.55646 254.83498 131.05151 265.73448 111.12891 271.76172 C 101.8276 274.57625 91.963756 276.08789 81.746094 276.08789 L 2.8300781 276.08789 C 5.1564269 279.50651 7.5945476 282.84382 10.144531 286.08789 L 86.433594 286.08789 C 111.30889 286.08925 134.09607 277.11505 151.74414 262.23242 C 169.39221 277.11505 192.18135 286.08925 217.05664 286.08789 L 293.3457 286.08789 C 295.89569 282.84382 298.33381 279.50651 300.66016 276.08789 L 221.74414 276.08789 C 211.52648 276.08789 201.66263 274.57625 192.36133 271.76172 C 172.43873 265.73448 158.93182 254.83498 151.74414 248.0332 z M 18.894531 296.40234 C 20.446339 298.0987 22.035856 299.76599 23.650391 301.40234 L 151.74414 301.40234 L 279.83984 301.40234 C 281.45438 299.76599 283.04389 298.0987 284.5957 296.40234 L 151.74414 296.40234 L 18.894531 296.40234 z M 34.705078 311.71484 C 37.871421 314.42846 41.128672 317.036 44.480469 319.52734 L 151.74414 319.52734 L 259.00977 319.52734 C 262.36156 317.036 265.61881 314.42846 268.78516 311.71484 L 151.74414 311.71484 L 34.705078 311.71484 z M 55.876953 327.33789 C 61.681916 331.00059 67.705906 334.34609 73.933594 337.33789 L 151.74414 337.33789 L 229.55664 337.33789 C 235.78433 334.34609 241.80832 331.00059 247.61328 327.33789 L 151.74414 327.33789 L 55.876953 327.33789 z M 85.357422 342.33789 C 105.9032 350.50329 128.30065 354.99414 151.74414 354.99414 C 175.18763 354.99414 197.58703 350.50329 218.13281 342.33789 L 151.74414 342.33789 L 85.357422 342.33789 z "
     transform="matrix(1.4666761,0,0,1.4666761,-7.5100751e-4,0)"
     id="polygon966" />
</svg>
